<svg width="580" height="309" xmlns="http://www.w3.org/2000/svg">
 <!-- Created with Method Draw - http://github.com/duopixel/Method-Draw/ -->
 <g>
  <title>background</title>
  <g display="none" overflow="visible" y="0" x="0" height="100%" width="100%" id="canvasGrid">
   <rect fill="url(#gridpattern)" stroke-width="0" y="0" x="0" height="100%" width="100%"/>
  </g>
 </g>
 <g>
  <title>Layer 1</title>
  <path id="svg_18" d="m222,286z" fill-opacity="null" stroke-opacity="null" stroke-width="1.5" stroke="null" fill="#00abff"/>
  <path stroke="null" id="svg_19" d="m6.5,155.003712c0,143.837137 119.602072,142.779511 118.93015,141.771461c0.671922,1.00805 79.958688,16.87244 120.273993,-21.202096c40.315305,-38.074536 118.258228,22.210146 119.602072,-14.806764c1.343844,-37.01691 204.264212,51.823674 206.951899,-13.749138c2.687687,-65.572813 4.031531,-200.948942 -60.472958,-178.738796c-64.504488,22.210146 -145.135098,-43.362666 -145.135098,-46.535544c0,-3.172878 -192.169621,-29.613528 -192.169621,-2.115252c0,27.498276 -112.882854,35.959284 -113.554776,34.951235c0.671922,1.00805 -27.548792,5.238554 -31.580322,22.16057c-4.031531,16.922016 -4.031531,16.922016 -4.703452,15.913966" fill-opacity="null" stroke-opacity="null" stroke-width="1.5" fill="#00abff"/>
 </g>
</svg>