<svg width="580" height="309" xmlns="http://www.w3.org/2000/svg">
 <!-- Created with Method Draw - http://github.com/duopixel/Method-Draw/ -->
 <g>
  <title>background</title>
  <g display="none" overflow="visible" y="0" x="0" height="100%" width="100%" id="canvasGrid">
   <rect fill="url(#gridpattern)" stroke-width="0" y="0" x="0" height="100%" width="100%"/>
  </g>
 </g>
 <g>
  <title>Layer 1</title>
  <path stroke="null" id="svg_24" d="m51.919916,192.953125c25.447527,94 137.84077,93 137.310613,92.046875c0.530157,0.953125 44.003015,9.953125 112.9234,-28.046875c68.920385,-38 -38.17129,100 144.202651,17c182.373941,-83 102.85042,-106 102.85042,-107c0,-1 66.799758,-90 -28.628468,-101c-95.428225,-11 -138.901083,-42 -150.564533,-46c-11.66345,-4 -186.615196,-24 -176.01206,7c10.603136,31 -12.723763,79 -127.237633,58c-114.51387,-21 -22.266586,89 -22.266586,93" fill-opacity="null" stroke-opacity="null" stroke-width="1.5" fill="#00abff"/>
 </g>
</svg>